<svg width="12" height="22" viewBox="0 0 12 22" fill="none" xmlns="http://www.w3.org/2000/svg">
<path d="M8.16141 2.93301C8.16141 1.43461 8.25703 1.11581 10.138 1.11581C10.6162 1.11581 11.1263 1.11581 11.1263 0.57384C11.1263 -1.58946e-07 10.6481 0 10.0742 0H1.08394C0.510088 0 0 -1.58946e-07 0 0.57384C0 1.11581 0.541968 1.11581 1.05206 1.11581C2.86925 1.11581 2.96487 1.43461 2.96487 2.93301V18.9051C2.96487 20.4354 2.86925 20.7223 0.988296 20.7223C0.573848 20.7223 0 20.7223 0 21.2643C0 21.8381 0.510088 21.8381 1.08394 21.8381H10.0742C10.6481 21.8381 11.1263 21.8381 11.1263 21.2643C11.1263 20.7223 10.5843 20.7223 10.2336 20.7223C8.28893 20.7223 8.16141 20.4672 8.16141 18.9051V2.93301ZM4.08069 2.86923C4.08069 2.39104 4.08069 1.68965 3.79378 1.11581H7.3325C7.04559 1.68965 7.04559 2.39104 7.04559 2.86923V18.9689C7.04559 19.4471 7.04559 20.1484 7.3325 20.7223H3.79378C4.08069 20.1484 4.08069 19.4471 4.08069 18.9689V2.86923Z" fill="white"/>
</svg>
